name kv03_filtered_grf.mot
datacolumns 37
datarows 11
range 0.557500 0.562500
endheader
time	1_ground_force_vx	1_ground_force_vy	1_ground_force_vz	1_ground_force_px	1_ground_force_py	1_ground_force_pz	1_ground_torque_x	1_ground_torque_y	1_ground_torque_z	2_ground_force_vx	2_ground_force_vy	2_ground_force_vz	2_ground_force_px	2_ground_force_py	2_ground_force_pz	2_ground_torque_x	2_ground_torque_y	2_ground_torque_z	3_ground_force_vx	3_ground_force_vy	3_ground_force_vz	3_ground_force_px	3_ground_force_py	3_ground_force_pz	3_ground_torque_x	3_ground_torque_y	3_ground_torque_z	4_ground_force_vx	4_ground_force_vy	4_ground_force_vz	4_ground_force_px	4_ground_force_py	4_ground_force_pz	4_ground_torque_x	4_ground_torque_y	4_ground_torque_z
            0.557500	            0.000181	            0.001899	           -0.000126	            0.049608	            0.000000	            0.128025	            0.001242	           -0.000629	           -0.000585	           -0.000938	            0.001880	            0.001788	           -0.237209	            0.000000	            0.366985	            0.000184	            0.000001	            0.000253	           -2.202026	          333.169488	          -18.746741	            0.386468	            0.967276	            1.075203	            0.036546	           -5.529466	            0.311131	            0.298028	          328.863313	          -10.128935	           -0.369415	            0.965973	            1.108217	            0.004396	            4.851201	           -0.149416
            0.558000	            0.000175	            0.001795	           -0.000128	            0.049608	            0.000000	            0.128025	            0.001171	           -0.000622	           -0.000556	           -0.000843	            0.001764	            0.001568	           -0.237209	            0.000000	            0.366985	            0.000170	            0.000001	            0.000238	           -2.491060	          333.433327	          -18.787972	            0.386484	            0.967267	            1.075196	            0.041288	           -5.526502	            0.311402	            0.576507	          328.621638	           -9.911771	           -0.369412	            0.965965	            1.108210	            0.008525	            4.859664	           -0.146575
            0.558500	            0.000169	            0.001688	           -0.000129	            0.049608	            0.000000	            0.128025	            0.001097	           -0.000614	           -0.000525	           -0.000748	            0.001645	            0.001351	           -0.237209	            0.000000	            0.366985	            0.000155	            0.000001	            0.000222	           -2.784262	          333.681969	          -18.825628	            0.386500	            0.967258	            1.075188	            0.046089	           -5.523616	            0.311631	            0.866088	          328.374411	           -9.693257	           -0.369409	            0.965956	            1.108202	            0.012839	            4.867853	           -0.143694
            0.559000	            0.000162	            0.001579	           -0.000129	            0.049608	            0.000000	            0.128025	            0.001022	           -0.000602	           -0.000493	           -0.000656	            0.001525	            0.001140	           -0.237209	            0.000000	            0.366985	            0.000140	            0.000000	            0.000205	           -3.081362	          333.915163	          -18.859658	            0.386516	            0.967248	            1.075181	            0.050946	           -5.520813	            0.311818	            1.166581	          328.121606	           -9.473314	           -0.369406	            0.965948	            1.108195	            0.017335	            4.875772	           -0.140770
            0.559500	            0.000155	            0.001468	           -0.000129	            0.049608	            0.000000	            0.128025	            0.000946	           -0.000588	           -0.000461	           -0.000565	            0.001404	            0.000934	           -0.237209	            0.000000	            0.366985	            0.000126	            0.000000	            0.000189	           -3.382094	          334.132686	          -18.890015	            0.386532	            0.967239	            1.075174	            0.055854	           -5.518099	            0.311963	            1.477776	          327.863188	           -9.251876	           -0.369403	            0.965940	            1.108188	            0.022011	            4.883423	           -0.137804
            0.560000	            0.000148	            0.001355	           -0.000128	            0.049608	            0.000000	            0.128025	            0.000869	           -0.000572	           -0.000428	           -0.000476	            0.001282	            0.000734	           -0.237209	            0.000000	            0.366985	            0.000112	            0.000000	            0.000172	           -3.686191	          334.334336	          -18.916657	            0.386548	            0.967230	            1.075166	            0.060811	           -5.515478	            0.312066	            1.799442	          327.599121	           -9.028885	           -0.369399	            0.965932	            1.108180	            0.026864	            4.890811	           -0.134795
            0.560500	            0.000140	            0.001242	           -0.000127	            0.049608	            0.000000	            0.128025	            0.000792	           -0.000555	           -0.000395	           -0.000389	            0.001160	            0.000541	           -0.237209	            0.000000	            0.366985	            0.000097	            0.000000	            0.000156	           -3.991072	          334.519892	          -18.940837	            0.386565	            0.967223	            1.075159	            0.065774	           -5.512953	            0.312149	            2.131471	          327.329364	           -8.804193	           -0.369396	            0.965925	            1.108173	            0.031894	            4.897938	           -0.131740
            0.561000	            0.000132	            0.001129	           -0.000125	            0.049608	            0.000000	            0.128025	            0.000716	           -0.000535	           -0.000362	           -0.000305	            0.001040	            0.000356	           -0.237209	            0.000000	            0.366985	            0.000084	            0.000000	            0.000139	           -4.298797	          334.689249	          -18.961250	            0.386581	            0.967216	            1.075152	            0.070778	           -5.510529	            0.312190	            2.473449	          327.053872	           -8.577874	           -0.369393	            0.965918	            1.108166	            0.037094	            4.904807	           -0.128642
            0.561500	            0.000124	            0.001016	           -0.000123	            0.049608	            0.000000	            0.128025	            0.000640	           -0.000514	           -0.000328	           -0.000224	            0.000920	            0.000178	           -0.237209	            0.000000	            0.366985	            0.000070	            0.000000	            0.000123	           -4.609116	          334.842278	          -18.977871	            0.386598	            0.967208	            1.075144	            0.075821	           -5.508209	            0.312189	            2.825082	          326.772599	           -8.349910	           -0.369390	            0.965911	            1.108158	            0.042461	            4.911422	           -0.125500
            0.562000	            0.000115	            0.000905	           -0.000120	            0.049608	            0.000000	            0.128025	            0.000565	           -0.000492	           -0.000295	           -0.000146	            0.000803	            0.000010	           -0.237209	            0.000000	            0.366985	            0.000057	            0.000000	            0.000107	           -4.921786	          334.978871	          -18.990681	            0.386614	            0.967201	            1.075137	            0.080899	           -5.505996	            0.312147	            3.186062	          326.485495	           -8.120290	           -0.369386	            0.965903	            1.108151	            0.047991	            4.917785	           -0.122314
            0.562500	            0.000107	            0.000795	           -0.000117	            0.049608	            0.000000	            0.128025	            0.000491	           -0.000468	           -0.000262	           -0.000072	            0.000688	           -0.000151	           -0.237209	            0.000000	            0.366985	            0.000044	            0.000000	            0.000092	           -5.236569	          335.098945	          -18.999664	            0.386631	            0.967194	            1.075129	            0.086009	           -5.503893	            0.312063	            3.556061	          326.192513	           -7.889019	           -0.369383	            0.965896	            1.108144	            0.053679	            4.923901	           -0.119085
